<mxfile modified="2024-03-21T13:50:14.404Z" host="app.diagrams.net" agent="Mozilla/5.0 (Macintosh; Intel Mac OS X 10_15_7) AppleWebKit/537.36 (KHTML, like Gecko) Chrome/122.0.0.0 Safari/537.36" etag="V2Xl9UzcbXWnYhmYbxRZ" version="24.0.7" type="github">
  <diagram id="Ht1M8jgEwFfnCIfOTk4-" name="Page-1">
    <mxGraphModel dx="1428" dy="795" grid="0" gridSize="10" guides="1" tooltips="1" connect="1" arrows="1" fold="1" page="1" pageScale="1" pageWidth="1169" pageHeight="827" background="#000000" math="0" shadow="0">
      <root>
        <mxCell id="0" />
        <mxCell id="1" parent="0" />
        <mxCell id="aAXO7hSQOTURmnTOCLes-44" value="" style="rounded=0;whiteSpace=wrap;html=1;fillColor=#000000;strokeColor=#FFFFFF;" vertex="1" parent="1">
          <mxGeometry x="616.68" y="293" width="392" height="354" as="geometry" />
        </mxCell>
        <mxCell id="-QjtrjUzRDEMRZ5MF8oH-47" value="&lt;font color=&quot;#ffffff&quot;&gt;GitHub Action + Shell Script을 활용한 배포 자동화&lt;/font&gt;" style="text;html=1;resizable=0;points=[];autosize=1;align=left;verticalAlign=top;spacingTop=-4;fontSize=30;fontStyle=1" parent="1" vertex="1">
          <mxGeometry x="40" y="22.5" width="650" height="40" as="geometry" />
        </mxCell>
        <mxCell id="SCVMTBWpLvtzJIhz15lM-1" value="" style="line;strokeWidth=2;html=1;fontSize=14;" parent="1" vertex="1">
          <mxGeometry x="40" y="70" width="1060" height="10" as="geometry" />
        </mxCell>
        <mxCell id="aAXO7hSQOTURmnTOCLes-1" value="" style="dashed=0;outlineConnect=0;html=1;align=center;labelPosition=center;verticalLabelPosition=bottom;verticalAlign=top;shape=mxgraph.weblogos.github" vertex="1" parent="1">
          <mxGeometry x="142.5" y="138" width="75" height="75" as="geometry" />
        </mxCell>
        <mxCell id="aAXO7hSQOTURmnTOCLes-2" value="" style="fontColor=#0066CC;verticalAlign=top;verticalLabelPosition=bottom;labelPosition=center;align=center;html=1;outlineConnect=0;fillColor=#CCCCCC;strokeColor=#6881B3;gradientColor=none;gradientDirection=north;strokeWidth=2;shape=mxgraph.networks.pc;" vertex="1" parent="1">
          <mxGeometry x="472.5" y="140.5" width="100" height="70" as="geometry" />
        </mxCell>
        <mxCell id="aAXO7hSQOTURmnTOCLes-3" value="" style="shape=image;verticalLabelPosition=bottom;labelBackgroundColor=default;verticalAlign=top;aspect=fixed;imageAspect=0;image=https://blog.kakaocdn.net/dn/bUkaKY/btrWRXfjiTW/5LkLcdXMfvOWih5lKJq6nk/img.png;" vertex="1" parent="1">
          <mxGeometry x="33" y="985" width="509" height="512" as="geometry" />
        </mxCell>
        <mxCell id="aAXO7hSQOTURmnTOCLes-4" value="" style="endArrow=classic;html=1;rounded=0;strokeColor=#FFFFFF;" edge="1" parent="1">
          <mxGeometry width="50" height="50" relative="1" as="geometry">
            <mxPoint x="452.5" y="178" as="sourcePoint" />
            <mxPoint x="232.5" y="178" as="targetPoint" />
          </mxGeometry>
        </mxCell>
        <mxCell id="aAXO7hSQOTURmnTOCLes-5" value="&lt;font color=&quot;#ffffff&quot; style=&quot;font-size: 14px;&quot;&gt;push on dev branch&lt;/font&gt;" style="text;html=1;align=center;verticalAlign=middle;whiteSpace=wrap;rounded=0;" vertex="1" parent="1">
          <mxGeometry x="248" y="140.5" width="180" height="30" as="geometry" />
        </mxCell>
        <mxCell id="aAXO7hSQOTURmnTOCLes-8" style="edgeStyle=orthogonalEdgeStyle;rounded=0;orthogonalLoop=1;jettySize=auto;html=1;exitX=1;exitY=1;exitDx=0;exitDy=0;" edge="1" parent="1" source="aAXO7hSQOTURmnTOCLes-6">
          <mxGeometry relative="1" as="geometry">
            <mxPoint x="307.5" y="501" as="targetPoint" />
          </mxGeometry>
        </mxCell>
        <mxCell id="aAXO7hSQOTURmnTOCLes-34" value="" style="edgeStyle=orthogonalEdgeStyle;rounded=0;orthogonalLoop=1;jettySize=auto;html=1;" edge="1" parent="1" source="aAXO7hSQOTURmnTOCLes-6" target="aAXO7hSQOTURmnTOCLes-33">
          <mxGeometry relative="1" as="geometry" />
        </mxCell>
        <mxCell id="aAXO7hSQOTURmnTOCLes-6" value="" style="shape=image;verticalLabelPosition=bottom;labelBackgroundColor=default;verticalAlign=top;aspect=fixed;imageAspect=0;image=data:image/png,iVBORw0KGgoAAAANSUhEUgAAAT4AAACfCAMAAABX0UX9AAAAk1BMVEX///8giP95uf8Agf8Afv8Agv8Aff8NhP+Nuv8Zhv/G3P+awf9vtf91t//s9P+81v/y9//j7v9Omv/w9v/V5f/4+/9ho/+zz//Q4v91rf99sf8oi/9qqP/c6f+lyP+BtP83kf+Tvf81kP+30v/J3v9KmP+u0/+Gv/+py/9lpf/m8P+izf+Rxf+52f+/1v9Yn/+byf8EDiRpAAAJgUlEQVR4nO2deXfyKhCHg0AQjdYtGvctVmtr7ff/dJeB7MG+95x7W/Vlnr/URA/9nYFZGFLPQxAEQRAEQRAEQRAEQRAEQRAEQRAEQRAEQRAEQRAEKRGtpoPdbnNdn/r3HsrTMZpSKqQkhEjB2Xw7vPeAnonlgAlSQHJ/Ft57UE/DzDdmRxnzGaNaSUEn9x7Wc9Cdc5CLDVZR1/PCc6s517bIFvce2TOw5BLEW3cLn0VXBooO7jaop6EPQtFr1VVEc2WA4nCXIT0RIUxTf2W5MqaE8PGvD+i5GCj5/E/rpZnSj9qERVJOSiK2N6+jl2X54kK5FNatfwlJoZLwtX7V3THqX8ti7SQROH1v01ZTd25eElgEhd8uXl76amYvbV9EACEJbelXL2oWQ+xMd0W5poKI6X2G9gS0lGYb87LNibwyJaD01/kNZ2V+9B4jewpmgvDEtSr5aKu/UXoSLnNPPMjME6kxl5lnBflePG8F6Zpk415yx4QT0bzb+B6bHiMycRypfN5Qz2DBTuZjlZNITN3sjCgRaVkglc/zPgVUEFhic5RIcZ/RPTzKc2QzM5cP6leQyJlZDfP7LoN7fD4p4WmcV5TPW26UwzW5iHrFsHBq5aZ8EwgAzTuU7yaxmrxpkFeQr3+A8MU3oqlYGgM/O+BW05Q2l6+pK/e+KdWH6hZyp+E9PEyFKMnLVL4WAb/L55H5GJzz272G9+gclFtNUlwj33Bsor5teof6mLdvfd11tnlOATq1TibnGORlq7nyHKM7je7hWbIsKIbSldQ7bmKf3xDj0vcdG5nOzYiZ/fHy9vhB4tz9BqjyMbPJdoWCH92VZuqEYtT3Lcr8ZLIbuaa+LG8MdZVF8q3lW0jCSKW3WT25V74WziEA/PUhPRVN2I201uPDHexhotv9nqsSiQ/qC9wIutUYbvP+iQ10Y4hKO1W4htSNYaH5zww4+Nz5KV/6+k3dpOZjzPJv0OVRwtmhOflsvaxmpj9NsJf8lnAUx6Pe7Z8AzlEcOdnWGxOatOVSSrnujpQs7zg4b3e+ukD9efOmPJ8LytQtjF33t275i1lJLWDamyvYIU4v9RY+Ty9w/83a9Pw5p2lzr6Ti9HvjfhiU+Qjd1czByvJWg089k6VQaAtlFut6YyS5R99CD3+Y5n8na0HktX1qFfuE2r7WjCyazcWc6UJqNQ8JN+B71NI5a66vFCrVQp5/c9wPQlPUaqMnH8oIi8QYl1MQsxoMbqBEKE9J6LiHTmkpHbQ/JR9hpb8bWqykLGQeS+gj8qPiPdAFSItd5E3mZlsvyCfWxU92MFtLgupEeF74IIYuonJ4PWFOtqU29XGEQoPaHgpWlWVsCElywbeqqSuqJxi2XK2FPzbMR6VpfGzuOaCaWrSiLkgJRcDc/CKmlCpmzFr9nYpxnAtfmiZ2E+nSBhuZsnB95es0bi4LJgo9boXcLtz4IP8ndbCzSK994GmnJrk4lbvTVr6KYDy9qyQymyz0uHlQ5JKmwOpimRoClwVkH5Jt1qvVaZz2Rmoh2uBQN+pFpEzreloZeDKTtX8xJUJIld9EaRF1AiUfjeLkRCDncFiLKTts+f7JqCcJpGxQw1fJiQbsFULFq7/rGfVMkQt+yrWuVPM3qxxXZPkvTEw1P/3TSqtnbIwVz65qv9tiRMzPm0w9vetuP2zz95KaTH8tGc2tbwBZBc/UK1mf+hhOfkB4ras2aYHVXevTnOP9ZP9m1r6uPmSeqWfWvv3EQE1/b9tYZFaeHju69hVNBvrCIQnR+mXq6daO3PMmgbXWLy/ug+f9nUE/DlX5zn7Sw9FVczXP3Ugx7luLZCu47YtcvRdH477ygpX1cAyn00w9OEW4y24ZQX6rA5v9OM8zlE26d5a/Jp/u4ajU57u0LA30KVSPDTa5i/34dXcJpTxZOmXZAw9RrLhEUHEplWk8CHKocymvRb4+1PtEnH8QgRcpH7KcQb1vXMjQ1hDYOLfyWYO1va/PaKWtum9QrvcrhnWAPFm0zR5SeCI6RHQt4fXsse4Jug0E5ePZbCyoLijUCqEHs9exW6ynB18/l4O4eAbdmiokOXC6jSZsudhUN+MTkTzFiV0dtL1bmVY4y3Jgyf2pVZl4x5J7pKDExY1y73aiOmwfGIMOgkP75qSMp0R3GYiFa5WCjO/y/P5o1P/DlOwto6WLa16Ki2WS/xGU7z+B8v0nbss3Wq0Xi9kqsl40hKPL+9f7a+Rgd0YCHMyyBB3hVjKhYaJ5Q53+RxB0gCA4utpNPuG2YxwrxrOtDxX42Rp2ex9Bp5HSCY5u+t+l7bEZcNpIyUbhoZz6MUP1YsBSi6cMT2FexbV7XIDWn5i20WcsN+24349WB31cdVeJ/0aBluw9OnfPo9cOvAsuvzfoxwEeWVVultKnPjaZyxhBJ2Sl+eys9XrNNL2ABQYuLoBQeS+Z36p25mgNn5QWSFjvgmJJetgA/VysGgzyE4JAj5HaE9TWPHvGi+aijC8oz/hQydf5+sFhPiqw3c3zbj3Ys9hU7zlIImb5W1CvGg/265K6wRae93pN31HbUXwo4Od7uHHQ6BxrP/PeaXRef2qMj8wYfAMxRSdoJ7D0KF9loX/lq2NzE11wJz83yAfGnHDbrfqVRr6c0kPpYJpafgXciZvp21Sf3hBMd61QsKzhx1E3OJ+PH7CgqejanF9YfhyPHdvc1bM3cPJ8m+e9CJ70BCVhzIfKZeFCo6Ol6iXJSaiy3MYNH3uxzmlHaMvkf3cY+ZSJ6QkKcnnmwUywJA4Dk+O+W37BafmUQ20OJGyxUdgR73eMFCq3hQnZZ8nTnF9Vjqvk+7B8/1XJ51qDWpWtINzS6POSPXgtDG+5DjBY1//hTAv6IOsfL0ThUX8fVh/RA6v80bE9A6x+qEgteax48q0V2HyHmrvWJdEtoAJTM7+30rnLEGZvdZUDp+Jq3FIA8jNaKS9D91mxxeod6gOV8gpEgzaH4hpQXmEl/eCALy8WYcD8Oo1ShnHsOFoxqAEnUuk4k6K3gN69eemWZVAuzy8hmHaz3FyjJ/XTJBefSsFuS+dzklcM66LLzY1LP/TCc3zU79BvGHr6v5BJyhT6YRu83rsXF7aK9MvAyWKVnalf+AeCwrc9LuzcCBo5QcfhdK3O8s3nsEcpBfevN5SJG7BL3oB98g4uexV6+9lgtxvMJt/kYf3L1/F4/Lq4nukiCIIgCIIgCIIgCIIgCIIgCIIgCIIgCIIgCIIgCFLkH6rOeooIJEraAAAAAElFTkSuQmCC;" vertex="1" parent="1">
          <mxGeometry x="56" y="341" width="248" height="124" as="geometry" />
        </mxCell>
        <mxCell id="aAXO7hSQOTURmnTOCLes-9" value="" style="endArrow=classic;html=1;rounded=0;strokeColor=#FFFFFF;entryX=0.5;entryY=0;entryDx=0;entryDy=0;" edge="1" parent="1" target="aAXO7hSQOTURmnTOCLes-6">
          <mxGeometry width="50" height="50" relative="1" as="geometry">
            <mxPoint x="179.5" y="226" as="sourcePoint" />
            <mxPoint x="180" y="336" as="targetPoint" />
          </mxGeometry>
        </mxCell>
        <mxCell id="aAXO7hSQOTURmnTOCLes-19" value="" style="verticalLabelPosition=bottom;html=1;verticalAlign=top;align=center;strokeColor=none;fillColor=#00BEF2;shape=mxgraph.azure.script_file;pointerEvents=1;" vertex="1" parent="1">
          <mxGeometry x="373" y="355" width="86" height="96" as="geometry" />
        </mxCell>
        <mxCell id="aAXO7hSQOTURmnTOCLes-20" value="" style="endArrow=classic;html=1;rounded=0;strokeColor=#FFFFFF;" edge="1" parent="1">
          <mxGeometry width="50" height="50" relative="1" as="geometry">
            <mxPoint x="248" y="402.5" as="sourcePoint" />
            <mxPoint x="353" y="403" as="targetPoint" />
          </mxGeometry>
        </mxCell>
        <mxCell id="aAXO7hSQOTURmnTOCLes-21" value="" style="whiteSpace=wrap;html=1;aspect=fixed;" vertex="1" parent="1">
          <mxGeometry x="632" y="1146" width="80" height="80" as="geometry" />
        </mxCell>
        <mxCell id="aAXO7hSQOTURmnTOCLes-29" style="edgeStyle=orthogonalEdgeStyle;rounded=0;orthogonalLoop=1;jettySize=auto;html=1;exitX=1;exitY=1;exitDx=0;exitDy=0;" edge="1" parent="1">
          <mxGeometry relative="1" as="geometry">
            <mxPoint x="810" y="510" as="targetPoint" />
            <mxPoint x="1073" y="667" as="sourcePoint" />
          </mxGeometry>
        </mxCell>
        <mxCell id="aAXO7hSQOTURmnTOCLes-31" value="" style="edgeStyle=orthogonalEdgeStyle;rounded=0;orthogonalLoop=1;jettySize=auto;html=1;" edge="1" parent="1">
          <mxGeometry relative="1" as="geometry">
            <mxPoint x="852.5" y="241" as="sourcePoint" />
            <mxPoint x="817" y="374" as="targetPoint" />
          </mxGeometry>
        </mxCell>
        <mxCell id="aAXO7hSQOTURmnTOCLes-33" value="&lt;font color=&quot;#ffffff&quot;&gt;&lt;span style=&quot;font-size: 14px;&quot;&gt;check github action&lt;/span&gt;&lt;/font&gt;" style="text;html=1;align=center;verticalAlign=middle;whiteSpace=wrap;rounded=0;" vertex="1" parent="1">
          <mxGeometry x="44" y="268" width="129" height="30" as="geometry" />
        </mxCell>
        <mxCell id="aAXO7hSQOTURmnTOCLes-35" value="&lt;font color=&quot;#ffffff&quot;&gt;&lt;span style=&quot;font-size: 14px;&quot;&gt;run deploy.sh&lt;/span&gt;&lt;/font&gt;" style="text;html=1;align=center;verticalAlign=middle;whiteSpace=wrap;rounded=0;" vertex="1" parent="1">
          <mxGeometry x="234" y="414" width="129" height="30" as="geometry" />
        </mxCell>
        <mxCell id="aAXO7hSQOTURmnTOCLes-36" value="&lt;font color=&quot;#ffffff&quot;&gt;&lt;span style=&quot;font-size: 14px;&quot;&gt;deploy.sh&lt;/span&gt;&lt;/font&gt;" style="text;html=1;align=center;verticalAlign=middle;whiteSpace=wrap;rounded=0;" vertex="1" parent="1">
          <mxGeometry x="351.5" y="461" width="129" height="30" as="geometry" />
        </mxCell>
        <mxCell id="aAXO7hSQOTURmnTOCLes-41" value="" style="shape=flexArrow;endArrow=classic;html=1;rounded=0;" edge="1" parent="1">
          <mxGeometry width="50" height="50" relative="1" as="geometry">
            <mxPoint x="576.68" y="458" as="sourcePoint" />
            <mxPoint x="626.68" y="408" as="targetPoint" />
          </mxGeometry>
        </mxCell>
        <mxCell id="aAXO7hSQOTURmnTOCLes-43" value="" style="shape=image;verticalLabelPosition=bottom;labelBackgroundColor=default;verticalAlign=top;aspect=fixed;imageAspect=0;image=data:image/png,iVBORw0KGgoAAAANSUhEUgAAARkAAACzCAMAAACKPpgZAAAA/FBMVEX////1hjWRQQfediryhDO2XBqxWBjvgjKXRguaRwyMOwDLf0f4hzT3m1r+8uvs4NicUhvnfC+hTRDvhzyyZTHfhUSbTx2iVCHl5eXBwcHoh0IAAAD19fUgICC7jXPa2to/Pz+cnJwqKiru7u6Li4uurq67u7tERERxcXF8fHyYTyJsbGyWlpZeXl7MzMxSUlIwMDDl08YbGxtWVlYuLi4PDw+0fluMNQD+8ej2k0r95dT4qXL5uI+pqal6enriw6772MHPsJ/4sIGgXjb3pW381Lf6yKfEoI3hkli0gmK5c0f0fyLroW3hy7vlx7CyXyb5uIymaUPBl3ygXCs9wzO7AAAG0klEQVR4nO2da1ubSBSAId3t2ojBNdUOzSDXkKQEglG0URPvZi11a/X//5edAeKletSVWISc9/FJCI/izMvMmUM+zBEEBEEQBEEQBEEQBEEQBEmQ97bzbsKbRL5c+Vjf+Zp3M94atb3Nua3qx3okHu7X8m7MG0I++FmtVirMjChKErqZsLZ6VGFeUjPMTf34JO82vQno6lbs5doMcxMtnGDAYWZSMTdm+JxaOJ15Nw+a4W6OZ90NYIa5EQe7MxmLZTl5B83weFPfnbnkb2189c9F3OtHzPA5NZgtN3tnV1sry9GAu3nUTOzmYkbcUHm8tFWtVleWJYktz9u1x81wN9LOLLipXc4l+QszE4fZnW9PmBFnJDFeW0lFJGZE8Y8/K0+a4Ynxzn7eTX9l1r68yAwfXeV9aJB55vZiM3wRH5TyoUEef/t+WstippwPDeerR9VPn1nG/+8jZn48ZaZ0bmoHV3ydZmYk6d1cBTJTef/Xk2b4nBIvSuPmLFmnP31m/cpshhENTkuS4GwmE4ibEadhhifGh4V3wxO0qZspvhsqn80fbtceNvM5ixnuJtrZLmpifL66uDUf1Q+/PWTmwzsxkxkuR7wopJq11RW2IM1LovS+8jpmRGmhiGbkRb4icTMimrmDvMjnEJq5z30zS3U0w3nAzN9ohoNmINAMBJqBQDMQaAYCzUCgGQg0A4FmINAMBJqBQDMQaAYCzUCgGQg0A4FmINAMBJqBQDMQaAYCzUCgGQg0A4FmINAMBJqBQDMQaAYCzUCgGQg0A4FmINAMBJqBQDMQaAYCzUCgGQg0A4FmINAMBJqBQDMQaAYCzUCgGQg0A4FmINAMBJqBQDMQaAYCzUCgGQg0A4FmINAMBJqBQDMQaAYCzUCgGQjcswgCzUDIS5MdwHBvtF+QL48qfNc4afDjtfbTi44LaYbXHlpdmR/sbj+4B2NmM5JU5GoIdI3X8XqV3SmjMuz2P/0dTSUpOizDJsGbW9M1I0kLJRgvnPO4pNe0dk4uVUUReY9vt813246WV7KZKV0VGnpwVFn6LC7sn2fZu55XLrrIuytTp3ZwdniSbVd/KSrVxvU31Hha9nIzLL6U00vKS82w+FLKAhk3yD/TUoKpGelZZiTx+DTvlr868vhLvIbHZqRosLv5ZJUilr+cFPQB6f8hjxe3kspWUf3iGZWtouOSz6Nb1MZXlbll9kT49elqaGylz7u5v5Xaweb33WdU0BMPZ2Me3aaWzpDHqi5Kx/u5tjFfIDMsCh2XvzjcY0DVXQelLwz3FA9XBBZL8jVDJsYf0tzv2kwkzfx4SZAvk9wvMSNJ9VJ8XTcd5DH/boubmaFirs9EPjiqMjNl+1pqKtQOrn7Ucbw8zBrGFwRBEAQpEZTS9MCi+bYkE449zH4RanQZdpewY9LsuG1DoYLl2G6762e/ek7oDTP7jSW62WL0mBnLU1vttqn6QlftjXphT5tCI/PACdx+M/NViN62kiPa7hvMtGX4QlNhn+2Gkfnq+eC5fs/jB8RnPwq7wZrvJ7eZfVR8Pp58TnxOY6f4AfUty1d8a3IVZiYdeM1+5871lUb3d3Rj+li6LXQCHguMoNlTGz3F6amhzk8460EvMFm/aCPsq32XaWi2zJbaGlJBC7ojs9+3J2quzdBOeDewFNaMYzqCE/IBb6iBQfy+HjQtx2yzE90usYgbsNBBiKWENhV802OneqYiaOaGp5HO9TwkuqsRQljUdVXrzj/ohtnnai6MWuw+90fshhtxFzqhw1/1Sdgcqk787q0Tga7rvNdkw6WaGo+R0E5/jegqo68IpKffieda4JHf1JXp4gd8uHQ2mAijwbvQDLkTOzZDWcTpqPEtjwWRoMN7Tb2epalxXFU7qQairzcdxyHMTHDbjOUGBV21jX7HMIxR2OVmuI1bZsiopesbsRnS4kGaqPEQoS43E0cP88ZMGmcs17w9m+zGFJKlPLC8OA1pbbBp8qsZ6ukOZdGnycOqHqdwqRnvETO001Burm/3baGYaGx1YRm81Q2Ve2ZII4nLzMwwiaJWr8fHg2aOKGiGhXQvHjSWxedgUXMZwU6XWMW075tRXSL4LjND9XVF0wifezahWnuDrU33zHiOEmc/1A7bjqY120NhaHoOy3+UIj47qcn9Fch6MDETv9oBD8n9lquP1KGgNUxd11mWb41CnaU4bABpYWwmXtTiC+ihyfF5GApVPVB1zfIaZsDO9QsYg6kyWZw1hZL43iavWvI6HGqCwlZrRVEm2fDQaGo3f3n994If/44Si9aaxpArSs85RRwzCIIgCIIgCIIgCIIgCIIgyFvgP71LK+bv/L/yAAAAAElFTkSuQmCC;" vertex="1" parent="1">
          <mxGeometry x="542" y="234" width="172.68" height="110" as="geometry" />
        </mxCell>
        <mxCell id="aAXO7hSQOTURmnTOCLes-46" value="" style="rounded=0;whiteSpace=wrap;html=1;fillColor=#000000;strokeColor=#FFFFFF;" vertex="1" parent="1">
          <mxGeometry x="662.68" y="349" width="296" height="268" as="geometry" />
        </mxCell>
        <mxCell id="aAXO7hSQOTURmnTOCLes-45" value="" style="endArrow=classic;html=1;rounded=0;strokeColor=#FFFFFF;" edge="1" parent="1" target="aAXO7hSQOTURmnTOCLes-47">
          <mxGeometry width="50" height="50" relative="1" as="geometry">
            <mxPoint x="453" y="407" as="sourcePoint" />
            <mxPoint x="558" y="407.5" as="targetPoint" />
          </mxGeometry>
        </mxCell>
        <mxCell id="aAXO7hSQOTURmnTOCLes-42" value="" style="shape=image;verticalLabelPosition=bottom;labelBackgroundColor=default;verticalAlign=top;aspect=fixed;imageAspect=0;image=data:image/png,iVBORw0KGgoAAAANSUhEUgAAAcgAAABuCAMAAACUTXOfAAABxVBMVEX///8AAAC0HtgSEhJtbW1EjO7KyspDkO5AoOxCle3v7++7u7vIE7VBmu3GFLK9F6ZFiO9JdfFEi+5Fie+AgIDWDsjU1NS6GKJDk+5GhO9JcvFIefDCFa3d3d2enp6PE+VHffA/pOxAnuzOEb2VFeOrG9uJEeegGN+wANacF+CnGtxKbvI+qetsCPHREMFGgPDBVN92C+2ADuo9rutJSUmurq7o6OgvLy9iBfTSjuc6OjrZAMwjIyO1GptfX1+jo6P01/GLi4v77vn44vXqy/Tk7/xZWVkZGRloaGjxz+3qveSew/W61/ehu/a8ivCOs/Tp3PvZ4/vIrPZAYvLBI8awJbvRN8G93ffxsey9Qt3juPDRhue/aOTWl+nKeuW1YeevN99xcumTQuTZqe6AvfKnUui8ZeXfwPSJMudsnPF2tfGDqPPV4Pu5lPLXtfSm2/RluO5pXuy2x/iFovSqf/RAu+vU6fpqrfCezfSgZ/F4lfSVWfGlM+O4fO5rifPh0/t+TvhGAPy2W77LeLq3wfnXl8rATavFPLHWjsjQbMHBQ6x8xPDhrNfvq+nlatzaQs2TX7+HeMzgbNWElNnumOjpiuKqRLw4JhDHAAATPElEQVR4nO2d/V8TxxaHgxogYJSXiAnhLQETEsCYIPKiV0giIEpB7K0ooKCoVBFqrcW39lqvt1qrll4v9u+9uzvnbGZmd3Y37/HT/f7EvjCZzZM5M+fMmVmHw5YtW7Zs2bJly5YtW7Zs2bJly5YtW7ZslUsniK6lyOHSNXK8rF5eGd2+VLba2bKq5d59snqvk8MUOdzXm4bL0WhY1rLNsrKVBnD74PgEcL1BDi+Fo1EFZaRndbJslbRlrmvQAM+RwyVskGBo16LQIsORmzUXy1dNWyYCcL0r5FA1rKPkeD2MGCO3gq4ad135amrLUFwDXJGPjx07FiWHqQhijERckmpqbPNameJGOueQ4zo5XkWKkcjNoATSW+O0SVaiJriRjgxRVpg00I0Icuy5VetWQNbUlK+2toTiRjrXewnHaJj4GhHE2NPjcgPIpvky1teWvtb5kY5CUR6nrslNcjWCGDu3b7sApNO3UNY629IqxY10TiBHaaQaWf1ZxdjTecfhUEE6neWttS2NVriRTpRQjIYzQ5weRSGJ9KwXQTZ8Vd5q2+J0jhvp0BjDFMbO0GX58hO1RfrskWtFaR830gnrY+wM3VGuT9aQUavT2WyPXCtJy9xIJwwYZYAURgkkjG4ueqFFNvvsWF3lCGJzx6Iw0rlLgnGR6EYqtd2TwdgZunkb/sXthRbZHLONa6WIdJDSIBVHOhCM61E8yI1OxNgZ+rbfvUPuWahBkA33ylVvW6yWIBZ3bA1OkOYY6Zkjh52IMRRyBWqDcFNQBRmbLUOlbWk0ihyjMF18HYJxYbghhBhDN/tra4P3ydmLNQrIpuaGhlhZ6m2L0cRaL8F4LArTxykIxnXCCHY7BBglwxqora11kwZ4mwK5WabK20JNrEBEVfYb4dwdcP9/huMQYAwlXAEZZNAtj24moY+UQfr8D8pUf1uyUkvXenv3IcbwBjm73UP8xk64ay4ESmwNEpBB9+zkrMtLgfT5yvYQfzulJKUlXZo5t7G0tLQ+urKvl8IYDd+F+3owNE6OLyWQ47eOxVrSIt0uCNGpILvsSF3xtdSrr337MlZVAokuZI8aGld0CzAm4tJQqB9A4jRWpkX6bWey2FIz43hRFKPhCIxsNsD9D0EC5EaCYEzEt6SjyWBAADL2vGwP+HfRNQsYVY4pDI2DC+kAjIkE6TKfsi3SmQHpt53J4uq6boPkMK5B+3PcwSgOHM8lCEbFsMqiQTo3553NCDLWZbFC7Z4DucnjSQ5Vn7LwCfXJ82c99Vl9S9mpZahjfKjd8u3tSY8q8dMlh+pbDPISU2KOSDESXse71zshNA4j2FQCFP/+O3Jm0a2CdMpt8F4DgvRbcybrq/LUVEeLtQ/osFSf7OWB8octouzI5umGPUP6v9VroiEOzFH9dGf0pXpzGoJxIRzpvECOicF+GM3cDwJI7xPluEZtka2W0j7y5ajorLi9jVNfipX6ZKtqqhrVVv6hLuunO9OhbZnp5VHQdUWjN3oB48rLdCrF3pyKQEw1gSOdOHCMuwb7H8JdCBJSzRd8CLLrXxYeqz1/ikQH9NsDU34RSLYwlbDyHzmZoLPGVkfWTFQ2quFl7ZUNjKkmcKSDGOPf/zjYH1gkJ2fd0CIhg27ehyAbH5k/VsFASjZWzwadZ245aV6h7MRV30pHnGNfMmWax79Me40Zpe6GMDSegFNbcYIxHh8cHOzv74fT96GPxNQAtUV2NWb9TeSnpLb8Ye7rMK9RNuLNpE4FNMp5UDBkUvC6PPsf4c9uhdTQeAJiOuk4YIx7CUh1ThlAQmrAg5gK8gfTxyooyKphzc/2DHfHWdMaZaP9XOkeC//TUpWrTEo/Ic/+R9bpU5fmMhhDiVtw9hahGB94/CMBGYA55VlIUG6Cr3ETQfr7TIPnhQVZtZ8vnwdZdcDCd21Vw3zhVkA6pnN+uvNGxY7C5P91ZaiTurRxebWTwii5jWB1t5Fj3LFIQKrG9QkEBNDhiCFIf5fZUxUYZNUYV74GpLUv25JO5lZ23VjOT0fKPyfHxtelkero8o0bKyt3T1xbW8skxqlpOOrsP+EYB8PqiCNIyT15SEAGnkLVIEG5GRrgoy4E2WoWPKdBjrVUW1E9aqjDo/1OxtnydX7+VjoyKzor+qJNdapFKHi+8Y7kFG+3ZckOTjrjO0IIByhyCY4MxkTiMXz4M9WwSgeT/cS21oIzOeuCEB3c/DwGIP19JsFzGmROY8qWJPfA7GU9OzauX1KW8uiUXLjWLquu2sPDnJZOr+kF47iscQ3G+DModGOAYBwYUA6f9isgA5DmgQnKuIhn0g8gG1tNgud5g5Q0xDwr63Hp/axNx39WlNQruLAgZbVzv5dqiLFqMBq2xkQcPUgHYhyBYB0xrYEgOJOYoNwA0ZyvugBko8l4pxAgHafE7U0XpCV/z1jjuuUWHqTULhkTfsDRm3VrTMRvqZt1vBhQMA4MYAvdISADtXAsJygr0x9w7EOQra2G1SwISKZ5sCFVfZDWgmkGEjiDxQDJGvFhhxajypBGmFDD4om5zJ4rWwME48CIeuo9gKQSlGWQDWBcFxoBZGOf4ZrJwoCkjaslkFXmIS8jiXzB4oBk4tGOXnZ8E47+JGntzp07q6urd1d+ljQnaWtra076a+vyBh3qmRsAoWGVBSCpBGWlRfrAlG76AWTr10bjnWKDFHzjVVXWZ52MK11ikPsdmhicdT1TOT6jzi4GFJC1aFyf1HhJhgAcKyBl29pnFDwvG8gqKzOZ+hLPXxQf5HTupbyMqxxHmAsPCcggOpNOkurhA1M62wgtsvVrg+B5KUFygZhcd5PhONKlFh/kmVzLSD8byXDcZi5NBkiLdIPpvAg5OzEYuT73kxYpkRSXX0qQp1iSuf642WDRWXpCsvggc5yJ235BYRx5wV19T0AGn8AxJl81kcPJRgTZJ3YmSwqSM7S5/brZwNwYM4AtPsjsp29SLy+/GBigMI6MaLpZAAlrBhyzTgIyBqb0USOCFBvX0oJkHE5tYNaKppgSph0lBpmJm6cgM/mSrJeSzm1sbGxLuoza2nr8+EV8YIDDyBlWWU8x0xyOvdwinhiC7BMa19KC5Meb2X/iAbaAulKAZD+B9Rppv1+d98doKieCceQXnY9AkOBMzjYBSAiVP2pVQYpmJkvpR8rjVLpHqzKZGNJRkv132YcpOkimyuMOk2CcEOYISs9/eQogXTDe8UJeaxdcb0SQfSJnstQg+ZhMdtOTXGCumi+wCCDr2GBrnSNPjK8u633KTi0B6YbxzsUmAhJ7yR8aFf9DBimYzyoMSNrgmYDkYWTz3XM/gnrNyUKDrKtnu2Q5wSEvjPqGVZK8ikcG6SWHD5oh0xyGqY9aEWSfIORayqA5hACS7HdjfXqSM8vwi8kFZJ2ZWqqHOjzntfFF6RHywjjyShAY6ocW6SKzIJMNANJPLk/2qSAFtrUgIBnPjo2H64DkByxWpye5gRJCywJkXfVQ8mzu+QHkt5MPRoFhlXQfQULiFQEpdZIQcaVA6k9nFQAkZ/DYi3ogORfC4vQk57qoWVwWQbZ36GQUZCllaJYHxpFXv4iqd1sEEjpJYlqVTvI/+s+XJ8hT41xWDvdd6oJ0cK3CyvQkF5jL1NUKyLoO0SxM1hwdOhNVJvhGXqkSRtxFIGMMyD5rIC3m7GDqztC4Z0r7tFz5+iD5nCwL05Psf1BBIXOQLfm3RVnQBfxTR99Y1L+Fj6eaVoic8y2yL5sWWQjxs1MCkPwEhumkFteGqYC7Gci6wmA8ibXv7u4+CDoEakMdRh0F/YPTBdHzBWDU6iI94E4zgiSB80kKpH6UrsAgNfPFApB8j2dGkmv6dEkmIPNebaboZMZmdCs6yMJsaxPDZGiKHhD9SHA/ZpvQtMIx1UeaD3byl3beXwRS88GGk1rcOJf5GGOQWa2hEylJ17y7m0XJt8oMST2Ur/UfcBFBQjbdPICMwZzkZmMGpH4JhQQ5rDNXLATJe4VGJLlMNnZsZAiSTfDLRefHOWPR3Z0XygndJ7zNhehg6XkDWFZHl18FKUgTKCBIXX9QDJI3eprVBqq4VsV9jhFI3oBTnzZ9BjQ9Pa3JXj0zNnXekxyvb9f5dR3vzgallqTuI9YCSGiQDyBo7oN0j4VWFaRgrFMwkMMCZ9AAJA9INGfLtSoelhFIflHBWLK+pT33HBNFx/VIarpKcaP8VadMfhprE1ok7iq42ZgBKahWQUCOJYVjFSOQfLBOf3rSbL7EACT7cGOFyIuWQR6nWWZvX3V8SW5iebIZ5iMb4LjVjyBFMfP8QU51VBuNUwxB8oMYvYiE6QymAUimby3MQgUAmSNKBeQbTZGY6oEN8h6kemCDfO5XQQqzlOnvaTrpSSaTHSJJ16jtMJJSF1JtntNoDJJ3K7SrJ7leTsf8GoCkgwgF24qCw5ixrlqSGZhMo+SdSUy+wn0+Z50AErLNHzUiyL6vhftCMJGdQj0rJROQvKPPT0/ygQOdxm8Akv7PQj2QI5VKK0keE2lFE0QzoAuqPkj69fVbHft6lCtxEPJag5AfgNt8xsBj9HchSKFhLT9IPljHoeAWc+mVUGqQ2WrmdRuH8ug75gY1QTmo7KE86SaZ5k24E/amCrLPL/6YsoM03AaAa6+66wwqHaSkD0e5RjlDX4UlA3IfGZxdvOj1Akh48ceDxi4EKTasFQBS4+tRnRnXg+qH1r8AkBJKbtBDXXqfARlUVp7Daix8FQ8sdJVX8RhtgVVskLRtFDhw/MBZ9RLOC86z+iJAOlJvGZS/qReUZXX9Kkg3gmyCkc68vECSJCgbGFb2WyzGzlQWQGqCdRCC4wJzopSQLwOkw/GGJvkP3GzQAZsIBCSMDEhYjLWgLFlWQBoZ1tKCFPqb/AyFYkO5uI8w3a7UII8QHT/OOJQHr3B6K+n3dx8o7/8dPX79HU6+R5CzO4tP3BmQuPa8OYYgW433FqwIkJr1xy2awJw4Vb/UIE+fPn1E1XGOp8avbHub8Rrf0F7lB+XUDmy0E1COgKQ3sxvEV2RbD6VFGlerMkBqdgQ4xZlbg6qVHuSRIzokhaH0tiuqGT1Mk1Ta6iCAJLlzO2qLhP1ZJrt8CNJsy6QKAckH67j5CPHMSOlBfmSapF6b1KDEOHmaCtodlp3J9wASNoichJ2vvE4wrDU+BNlqtolZpYDkXQ1WRv9Z8sHO7mlBo9SJvxKUbThI/Y2Ov84ohlUGGYDLt8G04ruyH8VUkKbbChYbJB24MV7ZapBvahjStQZyv3lSsrlIqenTIEMDy5L8ADU6TIfSFcM6mNnncwf3+XSCYZU5EpCtWe1FV16QOrudgYxz7Cy2yIJoWKnKxz8Y7e7uHj+SAXlFD2Ub9JMTh6lZkT9/JCBx513cC7sGDOs9ecNWZdSa5e6QZQYp2hrAZBqxlCBFxiENJD+Bt5GauLD39iCN8grc+ZqeE3lCQML38tSNe2GT40eZLZQNQwFEFQRSkJhhNv9UWpCCsERaMa+7zLnUR7qnxG6Snt16q2zzibPJbtgLuwYcf18Dgsx2B+VigKS3DTDd/UFvltt03V1pQYoWdCpd5Wf+7AUKJTTWC/RE5X8lkmhY8Q0uXsg138y8ZsDKC0ErCqQmWGdlzX5pQQo2Dk4pID9pL3xWUWIs580hCuWg+pKBp0EC0gVpArO+ZgBpxbCye0jlvPWIgbIDqQnWWYjjV0SL/ERGrzrpODM46jkEIZ4UlT3Q9tcgLBHYCcIbXLwAtqkJQfotGFZ2hFHIzY1RdL6+lfvZYJ2Vnxbds3J5OZodlvMX9tgzSxeuXr36Udbe3t4u+iGfP169MJNmeKbV8Suc+I1OBPkfnAzg6+oA7Hwzguyy+KblZKaS+ewqJhJluq0lsdExVmsboGdmu/ide7SWOm9h0aozybuUZPi6+zkTYk2hK4Jd6BU6QYucuo0gYen5A3kRjwIyZsmwyhof3q9oLL99/kRqP1tFirecjDhEgjxnPFYrND6mfMKwdkTZMkU+vEAa9mR6hz0hSfQpr+KtEweBJDqTbVSGlrKGYLEWQKqZ5uRt2fKSZUuGtVJVl28WcQl0+rQZyitoYj9CfACdyXdUrt3hNJVG5wJXZF5JUFZ2g7BfYV9szfAkdVBOwL1XINSDjZROm3zrcDzEzejQsDbJ7x1UQHblumOfLcv6Q0NSOysCxjSFQTtoox/oDNgP30EanZqgrKRDKiBjX7Rh/VKkBamNpMOtexB/RU/z7UGKZACyr9wQPJ9XQfpsw1oKpTA7WUlPltyRvc+fZEfkNIUSyWEgHRIh0/Ri579IhjLmJz9wehFkzH7BcvmU+rhLN0ogN4NzInDXHr3C4LkCEmclIR1SAmkb1jJr4g+qVcK5TzBXuQfHVALBoTYZJG67e98LL1lubrANa9k1k+kqkVw3kITxz1V63c+f/YEgeB4LNfi27GafbVgrQJ/UJonkgCQ4kxNMVs899VU8LvW15z7bsFaE9pAkzlLuQioIcSbVGS6F5Df4vrrbKshm27BWiK5iP/mRHKcwGUQOw6YOsglakGi34HUjyAbbsBZV/wfPx7uKTwnd9AAAAABJRU5ErkJggg==;" vertex="1" parent="1">
          <mxGeometry x="643" y="335" width="149.22" height="36" as="geometry" />
        </mxCell>
        <mxCell id="aAXO7hSQOTURmnTOCLes-47" value="" style="shape=image;verticalLabelPosition=bottom;labelBackgroundColor=default;verticalAlign=top;aspect=fixed;imageAspect=0;image=data:image/png,iVBORw0KGgoAAAANSUhEUgAAAOEAAADhCAMAAAAJbSJIAAAAllBMVEX////qKEXqJUPqIkHpADLpHT7qJELpDTbpFDnpADDpEjjpGTz//P3pCTXpADP+8vT61drweIf97e/84ubvaXr4vsX+9vf5yM75zdLyh5T1pq/97vDuYHL4xMr3uMD73ODxgI7sRFv0n6nrL0zuW2/zkZ3wcID0mKP1o63tTmTsQlr2sLjrOFLtU2f3usHzjproACXnABkN35exAAANXklEQVR4nO2dZ5uiOhSAIaEEQlPEwmBvo+LM3v//5y7FQlMThETn8f20s886m2OS03JyIggfPnz48OHDhw8fPnz48PZ4nbm43P0OeI+jPdy9DgDEluj3eQ+lLYwAixFADf/sPNqhEosoQvOQ/oWx23b5DqlpBnoioQgkL/nZ1bDWczgPqll2MBVRWSZ78RBJLEu9Ke9hNcg3SiUU03W6SgSW8a/Be2CNMTZPEuJZ9FPfOv2Ewj+zVJ2zTHIv+ml7nlFR+bfgPbSGGJ7nUF8LQlcE4gWz8zdW6lg9TeHySxACWcyAVn/CETik6xLNIzO4QWIOvPsLs9iJpw3o8Yrs6WIBvPoDIsZODQSRubdXqChgNLUb3uN7GjeaQgW60R9CXBZQFNU17xE+i6eKAEdbcKjBKgFFURvzHuKTzLCoRnHFwQTVAkbmw+Y9xuc4QvQrCIubAkbapsN7jE/RFeHSFjztpnwR5pD3KJ9haqGFYKPbMxgBd7xH+QwTFdnxXryLNeE9zCfwzZXQBXenMLImIe9h5jH63elwMPa8wdBxv4z7TslC84WDel/AaBJfJIvT7w4Wo2Ava5plmqaqmqalaZI4740Wk2m3WlL/31DYyI8khAFjUSownO/NHpkIQ6UwOqDIGKkS2PXWY7f0ueF/XWN3w9Znfwfn7JThbZYIyUXZSoKqctjz86F7V+v3lw+2YYTucxItxhh2NFN+PMhUThlZ2sqfXpdsj0hCmd8ytf259HAbFYBIC2fjr/QXOG4/vDv56Tez5OS62eul/nh4VSPG5jKYJEIap/TafSwufo2xwPedkftCyjo+TuI0xeiBwY9BPNJS3lKvL18KVK3N2HAqIt8iMnv3uxvcCQcokK1wFD7+Z+x90wOg1S83IfpNALCVr9+TGplACjSmKakbKZV2JfxiKOBQJFDvjUtY9vhaw0O1TOD7SOhrrLdgKiEz33thPh5NKxKyOsJYP4xWW8LKjqLf3hHxiNMMRq53TsJjWzM64yVgIcq3xZaiqU7pbIgZOHd88SWbsxbkM6rOhlhhetmhuJKo/jYuYJeDI3MF54zFJFpMVtMiDng4MhfgKjeYdfxla9tGBVxzcWQuFALgY/Jtaw2mwp05Px2TgHM+26noBsCmPDm3c+v0khWFRfpzLt9oppDB6eiNBbt1yWtSoXcekP78Ebiz3SGeKjQl79AI3avV0p4pDTMcvwdVzHl9Jph5lXKtDBOVsO46nS4C1UKkmeyWgfPc2HI5clTPKk52JnqFuTuh5rPBi5xeRzXW6XSnvpB4kaXIFw3Z+fPUGmnGCW/TUOBUO3xhU9B8Ju2x1P2yCA5o+TU6Lo1PpTu0cV9Eu1yw8v7al1gaX1JbTM6Ru3XPo88ejw/R5DR45ZlugXr58XWqQlSa41PjxdaoXhj7b/UEmOSlGt5rTaFZmMH1jeFRWIxHxUlMAWYhxL2dB5O8annKHF/IFMogP2w7uB2jKntSCR9XtrACWEE+je/cTROppJNIUjPAAoBgIUOxve8owyOhhL8vsQ8VJK7zQZETPsqikKrTgcREhLvIVrjN+2HTjfUwDSb3bohUZMk1owYgNtFmnPe0nQ0i8bNMQsdmwm8SIcZwty4sNtufq2R+JLF32uF1egY3P4VZ6E/9QNKJdZ9FeBxldPgc8UY7SVzNFmNn6rru1Bn6oyCUqBIN+oFwEoWxyEmhAigjVcUQQlmPC1Upv2ll/li2MzOOZ0xPoFNkbDovFiSSgUfkErqvlskgAoQUR9+v5IGTY1LcARu+gG9DD1WFZvCOOxEAihT/9IniX37QLFPBtx7/wpeDrpCYX+lMfYBMI6Ews14iWKTCpDumcdfq06XqjKGv6D9UXWcBCkxRHt2qYw5xMiMjoi5mDgqUyDWW8HJ+XAVBsDruQmCaOrWL3CJApK5C9aJwEYxS4yhrYWfhuV27fzI7hv3VHR5+A6Dpr5IrV6mv1myxaE5SCdXbfX/cSUfUX+LUGFPXSXVkeZXmGNUHn02qNrjPJCRNSF0IZMUV9kqkpQiM6fQ3NDlPJFV8kUr4L3KEIoUKyT5peDuNr0dr0RaCubEJjVxa8g86AWFyrB3UH0oJE/aySfO5SEZ+a5Ve1cRsVcoyx/GcV05SlOv1s6GvrFpYnJYqTcbtObqBysd06KwkjCJMPi4AyztuUy6l7xbLVn39HgeFQ3wa3AzrZu4K00B+fNEMB+YxNPpmK6HgsZ5F3Pxdmgc4jEXkcHF/yDY6Jj7Qb5Ax0+wyl2Y9B5bZ5cLlE0YsGIrIR8LqstCWJKRPKDaBsWMWanCaQ8FlllTl1hZswmor8rAWKT1GgQYHi3/CVtisU5qKjIb5YXMgyaWh1Ak2tQGso6csUyZGkXEEnKfDQtkwzWIU+WJhMdj1samCpPXcs6g8BRS67d/q592utv07OfxcmhSS/oHPUe9kpkFav7LC0xwmHNreiRLDtm6V9FtOS7XTyfXLOXwvDgMyO/S47/NTtBEdDntLU0dIN2FA8vV5FUcZcNOYhM3ng/ubS5NkgElucvYrIgzsN6aA1KYfw7D3WfVPdKe6V16m5qCpO3MANO2z7XIjI2pR8V02iap9aMhONt6ptnC3naip0bRUJB8Nq2p31qHpbWjnVX+hT06BwXab7BG7VNCJR9eXyZ6k6bc+/Lz5vnvxf/sPISmMZQyKWkUdCN2GrrCgZgUsumBVGZLuaec7yZcB4/K/olaJjbRRW8LciqhZTHOTbqEJR5WmXpy25tnQS9tLo67ssIy6zhzczLNP0TWcwZgWNo9VYSxW6Z3Q6UUlaQO3IE1c9GrU9XTQIXMLDcCG+0UXJ6PC6e3/S139q6+mhNNlWT8ZdSvGzeHiuugbTwb7qPi/lf6Jl77SmL0ijrbznDTJ7q09h1p/cl0Sjb+aVLTdFXeNV8mrabnOTmAeZiUEKC5cNWraQyXM2Fdl33RT8+IcAlh0mbpmbIKNVW6G8usx7UZWV5dGX2r3otBR4+F9KZotPR82wrGE945HTw/I1L3SGUX01/c/cOPB77AUJqj5FEIXArwVZvdW4KmhnFPzTCNWbufboC3koNzy3Gi5WuJAFvH33Qv+55C8qJYJgXHvy7OefqqFYjV2WFbxUmYvbONhL+9qSes06RUBBwmJoz2TT9I2LmCFhxmBdme/4lbLowyXUdW8PJ7ckFmnBlFq4yHIbdU3D/VlZzIYfIePpwWgs27Y13uOJ1nj6fy384bJjfwukHXTJGk7fFFM/XrbMPVhUpXe0qEawUNNd8AX5efUk1BNnN4kem7rGZr1M+mVzDWceooGwOTDg3i/U91xpuCZwBXoVwNdL9V2qkmIzXJ7hVD1T3UBuvba+SJ4eK0CbXqRsCpwa4YKo09ItjVwvTzUubwrkpCy+yUVo5oialn/rp41PH9HA7PVF4P7YZ0tBMysgHat8Fc5KypPpb2WRcewRh5QkXPG6/EzpFVc8l4TreVaPZ9an8ow7yMTtjJUcq+zAXBemf6/tqsvFpQPlKFdoSEi2VekzGfZ7XrNbo/af8BzQqPsFb1YWVdxVFOFNJxnPSjzolxaP9a2nR8Kg42Wxf6GhAYHb4TsXDefsbiB8dNb6uRN46A2K12YJjMVAHazKQVmL8rb+38UV/Cheiy7Hg5ZtjsKQxaZyVbZPZ77Mye9gQ/NXVWAsyKawvjQJ6Ny4ZzhY4iGd9QeO6cAa0FlADchSkEB/St3lEfR+7kRnJml3isiAbKKZ9WucZ/swpAWfTuDq1/AobKr722WauVrGEBGari5GbyRWQoUG5hrSRzAXF4/tp1tL7RMhOW4MU/cpEfGyDTD3ta53W+CzF+Tj9Gu619TOSa/wq6+O/Z/N6t5GLFbddb+oHu3m8aUqEAqPSy4Jjow5+pDCgjjkvT1h8vJcY02Qtwge4YhXZPGZZGSt1/nDtl9NjV90ekSpJXc2tdllnNmlBsNGNTTcdbZt5OZP15dm07Wy5TV/aHSP9VPWqV/8rrh8l02YfYVANlcdobCoGrNXt7vOFXuAMzzMgUNl1cAgGyqvZ/IgLvl52NiAc/u50nPNPkcYKt8Jz2IAEQq3niJxTT2FWtUvxi+cWoMreffkWOCsZEAlHV9uVpc1lxQ4byr1zPzNMR+FzXaP/6T4K7jTzPO5agiSDSvZYapP6NzuzpJib+eTO18ePdddk+BlolxE/9cfx9nrcSh3JYZZk410mSc3nBRHksqnkFDu2zhSFxs8TZLtAKv3DFL62RDkvh8UJrxGt7zeKUoH0r5+G8HQcMv/zLlUHprQj/mS5t8VUHvYugrKB16yMVC4y8RL5suOWTIqGAmgFXKqHa03bs422WMXt7QAwxLGZjBfzMOI2sId5931bA8KmV17OX7RPQlxiAX88pSp6J40ud9m/AJRtlGbkDWKtswGwyT9w3jZt9qVxCumr+3xs+8hS2b4fZ9tWU17urSpE5BVuDRdm9+ebY4jeejGF8K/b82fZEKXSYqBmIVHN9ZU97CCSQFyMjEx9H4782eIEx7miZp4WYx+HpfM3AHd3ac+d70T8r24cOHDx8+fPjw4cOHP8//svbrIEUrNbcAAAAASUVORK5CYII=;" vertex="1" parent="1">
          <mxGeometry x="728.18" y="393.5" width="165" height="165" as="geometry" />
        </mxCell>
        <mxCell id="aAXO7hSQOTURmnTOCLes-48" value="&lt;font color=&quot;#ffffff&quot;&gt;&lt;span style=&quot;font-size: 14px;&quot;&gt;NestJS API Server&lt;/span&gt;&lt;/font&gt;" style="text;html=1;align=center;verticalAlign=middle;whiteSpace=wrap;rounded=0;" vertex="1" parent="1">
          <mxGeometry x="748.1800000000001" y="558.5" width="129" height="30" as="geometry" />
        </mxCell>
        <mxCell id="aAXO7hSQOTURmnTOCLes-49" value="&lt;font style=&quot;font-size: 14px;&quot; color=&quot;#ffffff&quot;&gt;- ssh login&lt;/font&gt;&lt;div&gt;&lt;font style=&quot;font-size: 14px;&quot; color=&quot;#ffffff&quot;&gt;- upload dist and other config files&lt;/font&gt;&lt;/div&gt;&lt;div&gt;&lt;font style=&quot;font-size: 14px;&quot; color=&quot;#ffffff&quot;&gt;- startOrReload pm2&lt;/font&gt;&lt;/div&gt;" style="text;html=1;align=center;verticalAlign=middle;whiteSpace=wrap;rounded=0;" vertex="1" parent="1">
          <mxGeometry x="364" y="545" width="221" height="78.5" as="geometry" />
        </mxCell>
        <mxCell id="aAXO7hSQOTURmnTOCLes-50" value="" style="endArrow=none;dashed=1;html=1;dashPattern=1 3;strokeWidth=2;rounded=0;" edge="1" parent="1">
          <mxGeometry width="50" height="50" relative="1" as="geometry">
            <mxPoint x="506" y="476" as="sourcePoint" />
            <mxPoint x="556" y="426" as="targetPoint" />
          </mxGeometry>
        </mxCell>
        <mxCell id="aAXO7hSQOTURmnTOCLes-51" value="" style="endArrow=none;dashed=1;html=1;rounded=0;" edge="1" parent="1">
          <mxGeometry width="50" height="50" relative="1" as="geometry">
            <mxPoint x="496" y="543" as="sourcePoint" />
            <mxPoint x="557" y="428" as="targetPoint" />
          </mxGeometry>
        </mxCell>
        <mxCell id="aAXO7hSQOTURmnTOCLes-52" value="" style="endArrow=none;dashed=1;html=1;rounded=0;strokeColor=#FFFFFF;" edge="1" parent="1">
          <mxGeometry width="50" height="50" relative="1" as="geometry">
            <mxPoint x="496" y="533" as="sourcePoint" />
            <mxPoint x="540" y="425" as="targetPoint" />
          </mxGeometry>
        </mxCell>
      </root>
    </mxGraphModel>
  </diagram>
</mxfile>
